<svg xmlns="http://www.w3.org/2000/svg" fill="#000000" width="24px" height="24px" viewBox="11 4 50 50" id="Layer_1" data-name="Layer 1" style="fill: #7a4f00;">
	<title>
		warning
	</title>
	<path d="M15.8,49.7H56.22a3.78,3.78,0,0,0,3.36-5.5L39.38,8.39a3.8,3.8,0,0,0-6.78,0L12.4,44.2A3.81,3.81,0,0,0,15.8,49.7Zm23.38-8.33a3.29,3.29,0,1,1-6.58,0V41.3a3.29,3.29,0,0,1,6.58,0ZM34.11,17.18h3.8a1.63,1.63,0,0,1,1.54,2L37.79,33.75a1.78,1.78,0,0,1-3.56,0L32.56,19.19A1.64,1.64,0,0,1,34.11,17.18Z" />
</svg>
